<?xml version="1.0" standalone="no"?>
<!DOCTYPE svg PUBLIC "-//W3C//DTD SVG 20010904//EN"
 "http://www.w3.org/TR/2001/REC-SVG-20010904/DTD/svg10.dtd">
<svg version="1.0" xmlns="http://www.w3.org/2000/svg"
 width="260.000000pt" height="260.000000pt" viewBox="0 0 260.000000 260.000000"
 preserveAspectRatio="xMidYMid meet">
<metadata>
Created by potrace 1.14, written by Peter Selinger 2001-2017
</metadata>
<g transform="translate(0.000000,260.000000) scale(0.100000,-0.100000)"
fill="#000000" stroke="none">
<path d="M1191 2558 c-143 -56 -453 -213 -584 -295 -130 -83 -279 -188 -368
-261 -74 -60 -65 -35 -95 -257 -20 -146 -29 -558 -16 -715 6 -69 18 -183 28
-253 l18 -128 109 -85 c270 -209 590 -393 905 -518 l112 -44 113 44 c314 125
634 309 904 518 l109 85 18 128 c10 70 22 184 28 253 13 157 4 569 -16 715
-30 222 -21 197 -95 257 -184 151 -413 297 -661 422 -145 72 -390 179 -403
175 -1 0 -49 -19 -106 -41z m188 -215 c73 -54 76 -136 12 -251 -55 -96 -103
-215 -67 -167 13 18 14 18 25 -3 6 -11 11 -25 11 -31 0 -18 -39 -51 -60 -51
-23 0 -60 33 -60 55 0 8 9 24 20 35 18 18 18 21 4 57 -9 20 -34 69 -57 108
-51 88 -57 159 -18 214 44 61 131 77 190 34z m-232 -195 c9 -20 5 -28 -29 -61
-54 -53 -79 -113 -79 -190 0 -74 6 -92 62 -183 59 -97 89 -164 89 -201 0 -39
7 -40 136 -22 l80 11 11 47 c6 25 10 47 8 49 -1 1 -15 -2 -31 -8 -32 -12 -139
-16 -171 -6 -11 3 -27 22 -37 42 l-17 37 23 -7 c119 -37 205 -23 283 46 113
99 117 278 7 385 -34 33 -38 41 -29 61 6 12 14 22 19 22 18 0 95 -88 118 -135
31 -62 39 -171 17 -232 -8 -23 -40 -88 -72 -143 -32 -56 -62 -122 -66 -148 -5
-25 -13 -50 -18 -55 -10 -10 -188 -36 -247 -37 -51 0 -61 11 -70 77 -4 37 -25
84 -70 165 -73 128 -84 160 -84 240 0 82 31 158 90 218 27 28 53 50 58 50 5 0
13 -10 19 -22z m64 -119 c9 -17 7 -25 -12 -45 -33 -35 -38 -112 -10 -157 23
-37 66 -60 111 -60 45 0 88 23 111 60 28 45 23 122 -10 157 -19 20 -21 28 -12
45 15 28 25 27 54 -9 104 -123 18 -310 -143 -310 -161 0 -247 187 -143 310 29
36 39 37 54 9z m217 -656 c-3 -15 -25 -21 -123 -34 -66 -9 -123 -15 -127 -12
-7 4 -11 32 -5 34 18 5 183 27 215 28 36 1 43 -2 40 -16z m2 -57 c0 -22 -8
-24 -126 -41 -135 -19 -134 -19 -134 4 0 16 9 21 43 26 23 3 67 9 97 14 88 14
120 13 120 -3z m-50 -64 c0 -38 -108 -66 -145 -39 -26 20 -17 27 47 37 76 11
98 11 98 2z m-487 -193 c34 -9 37 -13 37 -44 0 -40 -11 -45 -25 -12 -8 16 -20
23 -50 25 -54 5 -138 -15 -169 -39 -24 -19 -26 -26 -26 -109 0 -49 4 -91 9
-94 5 -3 33 -1 62 5 129 25 162 28 181 18 29 -16 11 -29 -40 -30 -26 0 -81
-10 -122 -22 l-75 -22 -3 -69 c-3 -67 11 -126 29 -126 5 0 9 -9 9 -20 0 -31
-37 -25 -55 9 -8 16 -18 56 -21 88 -10 87 -18 103 -54 103 -39 0 -40 24 -1 44
34 18 44 51 35 111 -5 35 -11 45 -27 47 -28 4 -34 34 -12 58 24 27 110 61 190
75 90 17 84 17 128 4z m1106 -171 c26 -27 62 -99 55 -110 -13 -20 -36 -4 -54
37 -16 37 -24 45 -45 45 -19 0 -29 -8 -41 -34 -24 -49 -12 -93 45 -168 57 -75
69 -112 45 -139 -34 -38 -96 -16 -134 47 l-21 33 -32 -19 c-70 -43 -127 -8
-127 78 0 57 -17 46 -49 -35 -44 -108 -95 -152 -121 -104 -6 11 -10 89 -10
180 0 151 -1 161 -19 161 -10 0 -25 -10 -33 -22 -15 -22 -48 -20 -48 2 0 24
49 60 83 60 56 0 61 -15 67 -184 l5 -151 48 96 c27 53 54 118 61 145 7 30 19
50 28 52 13 3 17 -14 23 -105 8 -113 17 -153 36 -153 20 0 70 42 80 67 12 32
24 23 43 -34 17 -50 51 -93 73 -93 23 0 14 36 -23 84 -71 93 -88 159 -58 222
30 64 86 83 123 42z m-680 -74 c25 -32 29 -94 6 -94 -8 0 -15 6 -15 14 0 7 -7
19 -15 26 -24 20 -55 -59 -55 -142 0 -58 3 -69 20 -78 31 -16 85 5 137 53 47
44 66 44 38 0 -41 -63 -99 -95 -163 -91 -62 4 -75 28 -67 118 10 118 47 220
80 220 7 0 23 -12 34 -26z m-162 -21 c29 -70 -2 -219 -55 -266 -31 -28 -84
-37 -122 -21 l-33 14 6 79 c9 143 69 228 160 230 23 1 31 -5 44 -36z"/>
<path d="M1262 2268 c-15 -15 -15 -61 0 -76 7 -7 24 -12 38 -12 14 0 31 5 38
12 7 7 12 24 12 38 0 14 -5 31 -12 38 -7 7 -24 12 -38 12 -14 0 -31 -5 -38
-12z"/>
<path d="M1090 775 c-7 -8 -18 -15 -25 -15 -32 0 -75 -101 -75 -177 0 -42 1
-43 34 -43 68 0 110 75 104 187 -3 58 -16 75 -38 48z"/>
</g>
</svg>
